name D:\school\WTK\thesis\model\3dpredictsim\Results\Batchsim_tmt_linear_v2\Pog_s1_tmt_bCst_d02_k800_ig24.mot
datacolumns 128
datarows 4
range 1.06691229 1.09891966
endheader
time	pelvis_tilt	pelvis_list	pelvis_rotation	pelvis_tx	pelvis_ty	pelvis_tz	hip_flexion_l	hip_adduction_l	hip_rotation_l	hip_flexion_r	hip_adduction_r	hip_rotation_r	knee_angle_l	knee_angle_r	ankle_angle_l	ankle_angle_r	subtalar_angle_l	subtalar_angle_r	tmt_angle_l	tmt_angle_r	mtp_angle_l	mtp_angle_r	lumbar_extension	lumbar_bending	lumbar_rotation	arm_flex_l	arm_add_l	arm_rot_l	arm_flex_r	arm_add_r	arm_rot_r	elbow_flex_l	elbow_flex_r	pro_sup_l	pro_sup_r	glut_med1_l/activation	glut_med2_l/activation	glut_med3_l/activation	glut_min1_l/activation	glut_min2_l/activation	glut_min3_l/activation	semimem_l/activation	semiten_l/activation	bifemlh_l/activation	bifemsh_l/activation	sar_l/activation	add_long_l/activation	add_brev_l/activation	add_mag1_l/activation	add_mag2_l/activation	add_mag3_l/activation	tfl_l/activation	pect_l/activation	grac_l/activation	glut_max1_l/activation	glut_max2_l/activation	glut_max3_l/activation	iliacus_l/activation	psoas_l/activation	quad_fem_l/activation	gem_l/activation	peri_l/activation	rect_fem_l/activation	vas_med_l/activation	vas_int_l/activation	vas_lat_l/activation	med_gas_l/activation	lat_gas_l/activation	soleus_l/activation	tib_post_l/activation	flex_dig_l/activation	flex_hal_l/activation	tib_ant_l/activation	per_brev_l/activation	per_long_l/activation	per_tert_l/activation	ext_dig_l/activation	ext_hal_l/activation	ercspn_l/activation	intobl_l/activation	extobl_l/activation	glut_med1_r/activation	glut_med2_r/activation	glut_med3_r/activation	glut_min1_r/activation	glut_min2_r/activation	glut_min3_r/activation	semimem_r/activation	semiten_r/activation	bifemlh_r/activation	bifemsh_r/activation	sar_r/activation	add_long_r/activation	add_brev_r/activation	add_mag1_r/activation	add_mag2_r/activation	add_mag3_r/activation	tfl_r/activation	pect_r/activation	grac_r/activation	glut_max1_r/activation	glut_max2_r/activation	glut_max3_r/activation	iliacus_r/activation	psoas_r/activation	quad_fem_r/activation	gem_r/activation	peri_r/activation	rect_fem_r/activation	vas_med_r/activation	vas_int_r/activation	vas_lat_r/activation	med_gas_r/activation	lat_gas_r/activation	soleus_r/activation	tib_post_r/activation	flex_dig_r/activation	flex_hal_r/activation	tib_ant_r/activation	per_brev_r/activation	per_long_r/activation	per_tert_r/activation	ext_dig_r/activation	ext_hal_r/activation	ercspn_r/activation	intobl_r/activation	extobl_r/activation	
          1.06691229	         -2.89555193	          1.08557049	          4.66905525	          1.33364036	          0.87206113	         -0.00180332	        -17.44325769	          1.40118357	          6.41354590	         26.96967382	         -0.44254139	         -1.46047632	         -6.60425474	         -8.65118759	         -8.75802360	          6.17480150	          8.90408019	          4.01099626	          1.30555861	          0.04230528	         26.61134529	         -0.09905785	          0.57995306	         -3.12581739	         -1.64013811	          3.90286863	        -13.47918753	         12.73324838	         -8.93066828	        -13.45047000	         13.71406435	         25.16819546	         16.59141166	         86.51662706	         86.51662706	          0.29279783	          0.08952624	          0.08085701	          0.26604670	          0.15722495	          0.09078230	          0.05000019	          0.05000003	          0.05000002	          0.05000004	          0.09382812	          0.08650297	          0.05000017	          0.05000018	          0.05000042	          0.05000016	          0.21776510	          0.05897436	          0.05000024	          0.05000066	          0.05000043	          0.05000037	          0.30388985	          0.57104247	          0.05000012	          0.05000015	          0.06936270	          0.22296378	          0.09930837	          0.08086545	          0.08751992	          0.17085368	          0.24544692	          0.20009769	          0.18478018	          0.18634323	          0.24061853	          0.05000000	          0.09610002	          0.15622647	          0.05000002	          0.05000000	          0.05000002	          0.05000000	          0.05000000	          0.05000000	          0.12523062	          0.05000019	          0.08941575	          0.05000006	          0.05000008	          0.05000042	          0.05889091	          0.05889090	          0.05889091	          0.05000010	          0.05000055	          0.05889078	          0.05908811	          0.12928713	          0.14877890	          0.12588598	          0.05000032	          0.05001758	          0.05193363	          0.06936218	          0.08927586	          0.12376678	          0.05000006	          0.05000005	          0.15214447	          0.05000036	          0.05927592	          0.05000111	          0.11588678	          0.13599911	          0.09056885	          0.05889092	          0.05889091	          0.05889092	          0.05000002	          0.05000029	          0.05679632	          0.48648380	          0.28055069	          0.16870042	          0.24624151	          0.51530832	          0.28341264	          0.05000006	          0.13348746	          0.13348756	
          1.07758141	         -2.87667510	          1.12653259	          4.82098981	          1.35035666	          0.87078929	         -0.00165123	        -17.18218473	          1.27714203	          6.14085848	         26.40755785	         -0.28773270	         -1.22922863	         -8.84717244	         -8.68628835	         -9.43642387	          5.57926135	          9.96244945	          3.57697008	          1.17994658	          0.06059268	         27.31232328	         -0.08389626	          0.79396712	         -2.93199107	         -1.69193812	          3.65222164	        -13.51129135	         13.00139559	        -10.06598580	        -13.45378874	         13.55175332	         25.99138766	         16.62268708	         86.51662706	         86.51662706	          0.24859330	          0.07601021	          0.06864980	          0.22588088	          0.13348825	          0.07707664	          0.05000027	          0.05000003	          0.05000003	          0.05000002	          0.07966267	          0.15156141	          0.17086632	          0.09838987	          0.05000120	          0.05000017	          0.18488848	          0.10107199	          0.05000067	          0.05000042	          0.05000024	          0.05000026	          0.25801072	          0.48483055	          0.05497264	          0.05889102	          0.05889093	          0.18930229	          0.13348753	          0.13615660	          0.11345410	          0.14505941	          0.20839109	          0.16988837	          0.15688339	          0.15821051	          0.20429168	          0.05000000	          0.08159154	          0.13264094	          0.05000002	          0.05000001	          0.05000002	          0.05014481	          0.07447032	          0.05208916	          0.10632421	          0.05382525	          0.15589236	          0.05889091	          0.05688079	          0.05000029	          0.05000000	          0.05000001	          0.05000000	          0.05000001	          0.05000020	          0.05000014	          0.05016745	          0.21534278	          0.20955433	          0.13891541	          0.05000008	          0.05000025	          0.05000005	          0.05889092	          0.07579780	          0.16013701	          0.05000003	          0.05000004	          0.22793078	          0.10688211	          0.13851261	          0.06971005	          0.28529371	          0.30084565	          0.23664042	          0.05000000	          0.05000000	          0.05000000	          0.05000002	          0.05000036	          0.05000004	          0.57705665	          0.31135763	          0.18438612	          0.47947234	          0.56220043	          0.29871266	          0.05000000	          0.11333448	          0.11333456	
          1.08825053	         -2.85155366	          1.15334819	          4.95138671	          1.36729220	          0.86935150	         -0.00151304	        -16.82653846	          1.14782999	          5.86014743	         25.72806158	         -0.15877753	         -0.95876330	        -11.27411166	         -9.25776571	        -10.05763778	          4.92270484	         10.98955476	          3.12177565	          0.99995093	         -0.04637690	         27.54055729	         -0.13553533	          1.02156283	         -2.71051921	         -1.73317951	          3.34315116	        -13.54939858	         13.22972085	        -11.20282721	        -13.46766697	         13.44688953	         26.81249664	         16.64571910	         86.51662706	         86.51662706	          0.25651577	          0.06453473	          0.05828555	          0.19177902	          0.11333515	          0.06544016	          0.05000034	          0.05000005	          0.05000007	          0.05000001	          0.06763581	          0.16338432	          0.31863987	          0.09174220	          0.05889094	          0.11727621	          0.15697534	          0.08581311	          0.05000017	          0.05000282	          0.05000694	          0.05889003	          0.21905810	          0.42038273	          0.05000034	          0.05000018	          0.05000001	          0.16072278	          0.11333455	          0.11560066	          0.09632562	          0.12315937	          0.17692969	          0.14423983	          0.13319826	          0.13432503	          0.17344919	          0.05000054	          0.06927394	          0.14340859	          0.05000004	          0.16132955	          0.05000046	          0.05000010	          0.06322732	          0.06082206	          0.25773988	          0.17745991	          0.29640361	          0.05000007	          0.05000005	          0.25349835	          0.07841799	          0.05000004	          0.07516816	          0.05000001	          0.05000016	          0.06936285	          0.08753293	          0.18283189	          0.17791740	          0.13980018	          0.05000014	          0.06936257	          0.05000049	          0.05000005	          0.06435441	          0.13596070	          0.05334900	          0.05000023	          0.19351942	          0.09074584	          0.21192919	          0.05918573	          0.24222210	          0.25542611	          0.20091414	          0.05889093	          0.05889093	          0.05889092	          0.05651759	          0.05889093	          0.05889093	          0.48993674	          0.28155396	          0.15654887	          0.40708503	          0.58055292	          0.25361516	          0.05000000	          0.09622404	          0.09622411	
          1.09891966	         -2.82328603	          1.16568063	          5.05726422	          1.38423136	          0.86773707	         -0.00137956	        -16.37213453	          1.01790814	          5.57489051	         24.93138206	         -0.03312665	         -0.66928017	        -13.87016019	         -9.85869216	        -10.49982695	          4.41571644	         11.94694253	          2.63819114	          0.75967725	         -0.01391473	         27.03385205	         -0.14743443	          1.24273144	         -2.46351772	         -1.76374647	          3.01111831	        -13.59382904	         13.43152358	        -12.29489023	        -13.49304565	         13.42908262	         27.61904096	         16.63193060	         86.51662706	         86.51662706	          0.21778886	          0.05479174	          0.05000000	          0.16282570	          0.09622463	          0.05556048	          0.05000208	          0.05000008	          0.05000006	          0.05000006	          0.05888164	          0.18404187	          0.31656793	          0.07789174	          0.05000061	          0.09957076	          0.13327634	          0.07287187	          0.05000016	          0.05000009	          0.05000006	          0.05000006	          0.18598627	          0.37516494	          0.05000000	          0.05000004	          0.05000003	          0.13645799	          0.09622411	          0.09814810	          0.08178306	          0.10456564	          0.15021810	          0.12246352	          0.11308894	          0.11404563	          0.14726309	          0.08832805	          0.08907049	          0.12175779	          0.10480839	          0.22197421	          0.10856897	          0.08682701	          0.05368171	          0.05163958	          0.31633597	          0.31591866	          0.39399173	          0.19539002	          0.16543064	          0.21530018	          0.06657907	          0.09194954	          0.07050927	          0.08001782	          0.05000022	          0.05889096	          0.07431784	          0.15522926	          0.18557123	          0.16655454	          0.05000003	          0.05889078	          0.08169679	          0.22165541	          0.17285728	          0.17491411	          0.05000002	          0.05000002	          0.16430324	          0.07704574	          0.17994781	          0.05025029	          0.20565313	          0.21686370	          0.17058155	          0.05000000	          0.05000000	          0.05000000	          0.05000000	          0.05000002	          0.05000001	          0.62611303	          0.30376146	          0.15537336	          0.65352440	          0.64705231	          0.42578619	          0.05000001	          0.08169682	          0.08169688	
